<?xml version="1.0" encoding="utf-8"?>
<!-- Generator: Adobe Illustrator 17.1.0, SVG Export Plug-In . SVG Version: 6.00 Build 0)  -->
<!DOCTYPE svg PUBLIC "-//W3C//DTD SVG 1.1//EN" "http://www.w3.org/Graphics/SVG/1.1/DTD/svg11.dtd">
<svg version="1.1" id="Layer_1" xmlns="http://www.w3.org/2000/svg" xmlns:xlink="http://www.w3.org/1999/xlink" x="0px" y="0px"
	 viewBox="0 0 1056.5 198.1" enable-background="new 0 0 1056.5 198.1" xml:space="preserve" height="198px" width="1056px">
<g>
	<g opacity="0.31">
		<path fill="#4EA5FF" d="M38.2,36.7L58.7,96l7.4-59.3H89L73.8,160.8H56L34.8,98.1l-8,62.7H3.9L19.1,36.7H38.2z"/>
		<path fill="#4EA5FF" d="M173,67.2c0,2.5,0,5.1-0.4,7.8l-6.4,47.6c-3.4,25.2-16.9,40-40.4,40c-21,0-31.5-11.8-31.5-31.8
			c0-2.7,0.2-5.3,0.6-8.1l6.4-47.6c3.4-25.2,16.5-40,40.2-40C162.5,35,173,46.7,173,67.2z M146.4,75c0.4-2.7,0.4-4.9,0.4-6.8
			c0-7.6-2.3-9.9-7.8-9.9c-6.8,0-10,3.6-11.8,16.7l-6.4,47.6c-0.4,2.7-0.4,4.9-0.4,7c0,7.8,2.5,10.4,8,10.4c6.6,0,9.7-4,11.6-17.4
			L146.4,75z"/>
		<path fill="#4EA5FF" d="M215.4,112.5h-4.9l-6.1,48.3h-26.3l15.2-124.1h34.5c19.9,0,28.8,10.2,28.8,28.4c0,20.7-7.6,34.7-17.2,40
			l10.4,55.7h-27.3L215.4,112.5z M212.8,91.4h6.8c6.3,0,8.5-3.6,10.2-15.7c0.4-3.2,0.8-5.7,0.8-7.8c0-6.6-2.5-8.1-7-8.1h-6.6
			L212.8,91.4z"/>
		<path fill="#4EA5FF" d="M335.8,36.7l-2.7,24.3h-19.5l-12.5,99.9h-26.3l12.5-99.9h-19.5l2.7-24.3H335.8z"/>
		<path fill="#4EA5FF" d="M375.4,36.7l-6.1,48.1h17.2l6.1-48.1H419l-15.2,124.1h-26.3l6.4-51.7h-17.2l-6.4,51.7h-26.3L349,36.7
			H375.4z"/>
		<path fill="#1A1A1A" d="M502.5,160.8h-28.2L461.6,36.7h28.2l3,86.4l24.4-86.4h28.2L502.5,160.8z"/>
		<path fill="#1A1A1A" d="M614,63l-19.5,7.8c-0.9-10.4-4.9-13.3-10.6-13.3c-4.7,0-8.9,3.4-8.9,11.6c0,16.1,31.6,20.8,31.6,51.9
			c0,26.3-16.1,41.5-37.3,41.5c-16.1,0-29-11.4-29.4-31.1l20.8-6.1c0.9,11.4,6.1,15,11,15c6.3,0,9.3-3.6,9.3-11.9
			c0-20.1-32.2-24.8-32.2-54.4c0-21,14.6-39,35.4-39C603,35,610.9,45.8,614,63z"/>
		<path fill="#FF3737" d="M719.5,63L700,70.8c-0.9-10.4-4.9-13.3-10.6-13.3c-4.7,0-8.9,3.4-8.9,11.6c0,16.1,31.6,20.8,31.6,51.9
			c0,26.3-16.1,41.5-37.3,41.5c-16.1,0-29-11.4-29.4-31.1l20.8-6.1c0.9,11.4,6.1,15,11,15c6.3,0,9.3-3.6,9.3-11.9
			c0-20.1-32.2-24.8-32.2-54.4c0-21,14.6-39,35.4-39C708.5,35,716.5,45.8,719.5,63z"/>
		<path fill="#FF3737" d="M802,67.2c0,2.5,0,5.1-0.4,7.8l-6.4,47.6c-3.4,25.2-16.9,40-40.4,40c-21,0-31.5-11.8-31.5-31.8
			c0-2.7,0.2-5.3,0.6-8.1l6.4-47.6c3.4-25.2,16.5-40,40.2-40C791.5,35,802,46.7,802,67.2z M775.4,75c0.4-2.7,0.4-4.9,0.4-6.8
			c0-7.6-2.3-9.9-7.8-9.9c-6.8,0-10,3.6-11.8,16.7l-6.4,47.6c-0.4,2.7-0.4,4.9-0.4,7c0,7.8,2.5,10.4,8,10.4c6.6,0,9.7-4,11.6-17.4
			L775.4,75z"/>
		<path fill="#FF3737" d="M892.6,36.7l-10.8,86c-3.2,26-17.8,39.8-40.4,39.8c-20.3,0-31.8-10.8-31.8-31.1c0-2.5,0.2-4.9,0.6-7.6
			l11-87.2h26.2L836.8,121c-0.6,4.2-0.8,6.3-0.8,7.8c0,6.3,2.8,8.9,8.1,8.9c6.1,0,9.9-3.4,11.2-13.6l11-87.4H892.6z"/>
		<path fill="#FF3737" d="M969.9,36.7l-2.7,24.3h-19.5l-12.5,99.9h-26.3l12.5-99.9h-19.5l2.7-24.3H969.9z"/>
		<path fill="#FF3737" d="M1009.5,36.7l-6.1,48.1h17.2l6.1-48.1h26.3l-15.2,124.1h-26.3l6.4-51.7h-17.2l-6.4,51.7H968l15.2-124.1
			H1009.5z"/>
	</g>
	<g>
		<path fill="#4EA5FF" d="M34.7,32.7L55.1,92l7.4-59.3h22.9L70.3,156.8H52.5L31.3,94.1l-8,62.7H0.4L15.5,32.7H34.7z"/>
		<path fill="#4EA5FF" d="M169.4,63.2c0,2.5,0,5.1-0.4,7.8l-6.4,47.6c-3.4,25.2-16.9,40-40.4,40c-21,0-31.5-11.8-31.5-31.8
			c0-2.7,0.2-5.3,0.6-8.1L97.8,71c3.4-25.2,16.5-40,40.2-40C159,31,169.4,42.7,169.4,63.2z M142.9,71c0.4-2.7,0.4-4.9,0.4-6.8
			c0-7.6-2.3-9.9-7.8-9.9c-6.8,0-10,3.6-11.8,16.7l-6.4,47.6c-0.4,2.7-0.4,4.9-0.4,7c0,7.8,2.5,10.4,8,10.4c6.6,0,9.7-4,11.6-17.4
			L142.9,71z"/>
		<path fill="#4EA5FF" d="M211.9,108.5H207l-6.1,48.3h-26.3l15.2-124.1h34.5c19.9,0,28.8,10.2,28.8,28.4c0,20.7-7.6,34.7-17.2,40
			l10.4,55.7h-27.3L211.9,108.5z M209.2,87.5h6.8c6.3,0,8.5-3.6,10.2-15.7c0.4-3.2,0.8-5.7,0.8-7.8c0-6.6-2.5-8.1-7-8.1h-6.6
			L209.2,87.5z"/>
		<path fill="#4EA5FF" d="M332.2,32.7L329.6,57H310l-12.5,99.9h-26.3L283.7,57h-19.5l2.7-24.3H332.2z"/>
		<path fill="#4EA5FF" d="M371.8,32.7l-6.1,48.1H383l6.1-48.1h26.3l-15.2,124.1h-26.3l6.4-51.7h-17.2l-6.4,51.7h-26.3l15.2-124.1
			H371.8z"/>
		<path fill="#1A1A1A" d="M499,156.8h-28.2L458.1,32.7h28.2l3,86.4l24.4-86.4H542L499,156.8z"/>
		<path fill="#1A1A1A" d="M610.4,59l-19.5,7.8c-0.9-10.4-4.9-13.3-10.6-13.3c-4.7,0-8.9,3.4-8.9,11.6c0,16.1,31.6,20.8,31.6,51.9
			c0,26.3-16.1,41.5-37.3,41.5c-16.1,0-29-11.4-29.4-31.1l20.8-6.1c0.9,11.4,6.1,15,11,15c6.3,0,9.3-3.6,9.3-11.9
			c0-20.1-32.2-24.8-32.2-54.4c0-21,14.6-39,35.4-39C599.4,31,607.4,41.8,610.4,59z"/>
		<path fill="#FF3737" d="M716,59l-19.5,7.8c-0.9-10.4-4.9-13.3-10.6-13.3c-4.7,0-8.9,3.4-8.9,11.6c0,16.1,31.6,20.8,31.6,51.9
			c0,26.3-16.1,41.5-37.3,41.5c-16.1,0-29-11.4-29.4-31.1l20.8-6.1c0.9,11.4,6.1,15,11,15c6.3,0,9.3-3.6,9.3-11.9
			c0-20.1-32.2-24.8-32.2-54.4c0-21,14.6-39,35.4-39C705,31,713,41.8,716,59z"/>
		<path fill="#FF3737" d="M798.4,63.2c0,2.5,0,5.1-0.4,7.8l-6.4,47.6c-3.4,25.2-16.9,40-40.4,40c-21,0-31.5-11.8-31.5-31.8
			c0-2.7,0.2-5.3,0.6-8.1l6.4-47.6c3.4-25.2,16.5-40,40.2-40C788,31,798.4,42.7,798.4,63.2z M771.9,71c0.4-2.7,0.4-4.9,0.4-6.8
			c0-7.6-2.3-9.9-7.8-9.9c-6.8,0-10,3.6-11.8,16.7l-6.4,47.6c-0.4,2.7-0.4,4.9-0.4,7c0,7.8,2.5,10.4,8,10.4c6.6,0,9.7-4,11.6-17.4
			L771.9,71z"/>
		<path fill="#FF3737" d="M889,32.7l-10.8,86c-3.2,26-17.8,39.8-40.4,39.8c-20.3,0-31.8-10.8-31.8-31.1c0-2.5,0.2-4.9,0.6-7.6
			l11-87.2h26.2L833.3,117c-0.6,4.2-0.8,6.3-0.8,7.8c0,6.3,2.8,8.9,8.1,8.9c6.1,0,9.9-3.4,11.2-13.6l11-87.4H889z"/>
		<path fill="#FF3737" d="M966.3,32.7L963.7,57h-19.5l-12.5,99.9h-26.3L917.8,57h-19.5l2.7-24.3H966.3z"/>
		<path fill="#FF3737" d="M1006,32.7l-6.1,48.1h17.2l6.1-48.1h26.3l-15.2,124.1H1008l6.4-51.7h-17.2l-6.4,51.7h-26.3l15.2-124.1
			H1006z"/>
	</g>
</g>
<g>
</g>
<g>
</g>
<g>
</g>
<g>
</g>
<g>
</g>
<g>
</g>
<g>
</g>
<g>
</g>
<g>
</g>
<g>
</g>
<g>
</g>
<g>
</g>
<g>
</g>
<g>
</g>
<g>
</g>
</svg>
