<?xml version="1.0" encoding="utf-8"?>
<!-- Generator: Adobe Illustrator 17.1.0, SVG Export Plug-In . SVG Version: 6.00 Build 0)  -->
<!DOCTYPE svg PUBLIC "-//W3C//DTD SVG 1.1//EN" "http://www.w3.org/Graphics/SVG/1.1/DTD/svg11.dtd">
<svg version="1.1" id="Layer_1" xmlns="http://www.w3.org/2000/svg" xmlns:xlink="http://www.w3.org/1999/xlink" x="0px" y="0px"
	 viewBox="0 0 1048.3 197.7" enable-background="new 0 0 1048.3 197.7" xml:space="preserve">
<g>
	<g opacity="0.31">
		<path fill="#4EA5FF" d="M39.2,37.7l20.3,58.8l7.3-58.8h22.7l-15,123H56.8l-21-62.2l-7.9,62.2H5.2l15-123H39.2z"/>
		<path fill="#4EA5FF" d="M172.7,67.9c0,2.4,0,5.1-0.4,7.7l-6.4,47.1c-3.4,25-16.7,39.6-40,39.6c-20.8,0-31.2-11.6-31.2-31.6
			c0-2.6,0.2-5.3,0.6-8.1l6.4-47.1c3.4-25,16.3-39.6,39.8-39.6C162.4,36,172.7,47.6,172.7,67.9z M146.4,75.6
			c0.4-2.6,0.4-4.9,0.4-6.8c0-7.5-2.3-9.8-7.7-9.8c-6.8,0-10,3.6-11.6,16.5l-6.4,47.1c-0.4,2.6-0.4,4.9-0.4,6.9
			c0,7.7,2.4,10.3,7.9,10.3c6.6,0,9.6-3.9,11.5-17.3L146.4,75.6z"/>
		<path fill="#4EA5FF" d="M214.8,112.8h-4.9l-6,47.9h-26.1l15-123H227c19.7,0,28.5,10.1,28.5,28.2c0,20.5-7.5,34.4-17.1,39.6
			l10.3,55.2h-27L214.8,112.8z M212.2,91.9h6.8c6.2,0,8.5-3.6,10.1-15.6c0.4-3.2,0.8-5.6,0.8-7.7c0-6.6-2.4-8.1-6.9-8.1h-6.6
			L212.2,91.9z"/>
		<path fill="#4EA5FF" d="M334.1,37.7l-2.6,24h-19.3l-12.4,99h-26.1l12.4-99h-19.3l2.6-24H334.1z"/>
		<path fill="#4EA5FF" d="M373.3,37.7l-6,47.7h17.1l6-47.7h26.1l-15,123h-26.1l6.4-51.3h-17.1l-6.4,51.3h-26.1l15-123H373.3z"/>
		<path fill="#FFFFFF" d="M499.3,160.7h-28l-12.6-123h28l3,85.6L514,37.7h28L499.3,160.7z"/>
		<path fill="#FFFFFF" d="M609.8,63.8l-19.3,7.7c-0.9-10.3-4.9-13.1-10.5-13.1c-4.7,0-8.8,3.4-8.8,11.5c0,16,31.4,20.7,31.4,51.5
			c0,26.1-16,41.1-37,41.1c-16,0-28.7-11.3-29.1-30.8l20.7-6c0.9,11.3,6,14.8,10.9,14.8c6.2,0,9.2-3.6,9.2-11.8
			c0-19.9-31.9-24.6-31.9-53.9c0-20.8,14.5-38.7,35.1-38.7C598.9,36,606.8,46.7,609.8,63.8z"/>
		<path fill="#FF3737" d="M714.4,63.8L695,71.5c-0.9-10.3-4.9-13.1-10.5-13.1c-4.7,0-8.8,3.4-8.8,11.5c0,16,31.4,20.7,31.4,51.5
			c0,26.1-16,41.1-37,41.1c-16,0-28.7-11.3-29.1-30.8l20.7-6c0.9,11.3,6,14.8,10.9,14.8c6.2,0,9.2-3.6,9.2-11.8
			c0-19.9-31.9-24.6-31.9-53.9c0-20.8,14.5-38.7,35.1-38.7C703.5,36,711.4,46.7,714.4,63.8z"/>
		<path fill="#FF3737" d="M796.1,67.9c0,2.4,0,5.1-0.4,7.7l-6.4,47.1c-3.4,25-16.7,39.6-40,39.6c-20.8,0-31.2-11.6-31.2-31.6
			c0-2.6,0.2-5.3,0.6-8.1l6.4-47.1c3.4-25,16.3-39.6,39.8-39.6C785.8,36,796.1,47.6,796.1,67.9z M769.8,75.6
			c0.4-2.6,0.4-4.9,0.4-6.8c0-7.5-2.3-9.8-7.7-9.8c-6.8,0-10,3.6-11.6,16.5l-6.4,47.1c-0.4,2.6-0.4,4.9-0.4,6.9
			c0,7.7,2.4,10.3,7.9,10.3c6.6,0,9.6-3.9,11.5-17.3L769.8,75.6z"/>
		<path fill="#FF3737" d="M885.9,37.7l-10.7,85.3c-3.2,25.7-17.7,39.4-40,39.4c-20.1,0-31.6-10.7-31.6-30.8c0-2.4,0.2-4.9,0.6-7.5
			l10.9-86.4H841l-10.3,83.6c-0.6,4.1-0.8,6.2-0.8,7.7c0,6.2,2.8,8.8,8.1,8.8c6,0,9.8-3.4,11.1-13.5L860,37.7H885.9z"/>
		<path fill="#FF3737" d="M962.5,37.7l-2.6,24h-19.3l-12.4,99H902l12.4-99h-19.3l2.6-24H962.5z"/>
		<path fill="#FF3737" d="M1001.8,37.7l-6,47.7h17.1l6-47.7h26.1l-15,123h-26.1l6.4-51.3h-17.1l-6.4,51.3h-26.1l15-123H1001.8z"/>
	</g>
	<g>
		<path fill="#4EA5FF" d="M34.4,32.4l20.3,58.8L62,32.4h22.7l-15,123H52L31,93.3l-7.9,62.2H0.4l15-123H34.4z"/>
		<path fill="#4EA5FF" d="M167.9,62.6c0,2.4,0,5.1-0.4,7.7l-6.4,47.1c-3.4,25-16.7,39.6-40,39.6c-20.8,0-31.2-11.6-31.2-31.6
			c0-2.6,0.2-5.3,0.6-8.1l6.4-47.1c3.4-25,16.3-39.6,39.8-39.6C157.6,30.7,167.9,42.4,167.9,62.6z M141.6,70.3
			c0.4-2.6,0.4-4.9,0.4-6.8c0-7.5-2.3-9.8-7.7-9.8c-6.8,0-10,3.6-11.6,16.5l-6.4,47.1c-0.4,2.6-0.4,4.9-0.4,6.9
			c0,7.7,2.4,10.3,7.9,10.3c6.6,0,9.6-3.9,11.5-17.3L141.6,70.3z"/>
		<path fill="#4EA5FF" d="M210,107.5h-4.9l-6,47.9H173l15-123h34.2c19.7,0,28.5,10.1,28.5,28.2c0,20.5-7.5,34.4-17.1,39.6l10.3,55.2
			h-27L210,107.5z M207.3,86.7h6.8c6.2,0,8.5-3.6,10.1-15.6c0.4-3.2,0.8-5.6,0.8-7.7c0-6.6-2.4-8.1-6.9-8.1h-6.6L207.3,86.7z"/>
		<path fill="#4EA5FF" d="M329.2,32.4l-2.6,24h-19.3l-12.4,99h-26.1l12.4-99h-19.3l2.6-24H329.2z"/>
		<path fill="#4EA5FF" d="M368.5,32.4l-6,47.7h17.1l6-47.7h26.1l-15,123h-26.1l6.4-51.3h-17.1l-6.4,51.3h-26.1l15-123H368.5z"/>
		<path fill="#FFFFFF" d="M494.5,155.4h-28L454,32.4h28l3,85.6l24.2-85.6h28L494.5,155.4z"/>
		<path fill="#FFFFFF" d="M605,58.5l-19.3,7.7c-0.9-10.3-4.9-13.1-10.5-13.1c-4.7,0-8.8,3.4-8.8,11.5c0,16,31.4,20.7,31.4,51.5
			c0,26.1-16,41.1-37,41.1c-16,0-28.7-11.3-29.1-30.8l20.7-6c0.9,11.3,6,14.8,10.9,14.8c6.2,0,9.2-3.6,9.2-11.8
			c0-19.9-31.9-24.6-31.9-53.9c0-20.8,14.5-38.7,35.1-38.7C594.1,30.7,602,41.4,605,58.5z"/>
		<path fill="#FF3737" d="M709.6,58.5l-19.3,7.7c-0.9-10.3-4.9-13.1-10.5-13.1c-4.7,0-8.8,3.4-8.8,11.5c0,16,31.4,20.7,31.4,51.5
			c0,26.1-16,41.1-37,41.1c-16,0-28.7-11.3-29.1-30.8l20.7-6c0.9,11.3,6,14.8,10.9,14.8c6.2,0,9.2-3.6,9.2-11.8
			c0-19.9-31.9-24.6-31.9-53.9c0-20.8,14.5-38.7,35.1-38.7C698.7,30.7,706.6,41.4,709.6,58.5z"/>
		<path fill="#FF3737" d="M791.3,62.6c0,2.4,0,5.1-0.4,7.7l-6.4,47.1c-3.4,25-16.7,39.6-40,39.6c-20.8,0-31.2-11.6-31.2-31.6
			c0-2.6,0.2-5.3,0.6-8.1l6.4-47.1c3.4-25,16.3-39.6,39.8-39.6C780.9,30.7,791.3,42.4,791.3,62.6z M765,70.3
			c0.4-2.6,0.4-4.9,0.4-6.8c0-7.5-2.3-9.8-7.7-9.8c-6.8,0-10,3.6-11.6,16.5l-6.4,47.1c-0.4,2.6-0.4,4.9-0.4,6.9
			c0,7.7,2.4,10.3,7.9,10.3c6.6,0,9.6-3.9,11.5-17.3L765,70.3z"/>
		<path fill="#FF3737" d="M881.1,32.4l-10.7,85.3c-3.2,25.7-17.7,39.4-40,39.4c-20.1,0-31.6-10.7-31.6-30.8c0-2.4,0.2-4.9,0.6-7.5
			l10.9-86.4h25.9L825.8,116c-0.6,4.1-0.8,6.2-0.8,7.7c0,6.2,2.8,8.8,8.1,8.8c6,0,9.8-3.4,11.1-13.5l10.9-86.6H881.1z"/>
		<path fill="#FF3737" d="M957.7,32.4l-2.6,24h-19.3l-12.4,99h-26.1l12.4-99h-19.3l2.6-24H957.7z"/>
		<path fill="#FF3737" d="M996.9,32.4l-6,47.7h17.1l6-47.7h26.1l-15,123H999l6.4-51.3h-17.1l-6.4,51.3h-26.1l15-123H996.9z"/>
	</g>
</g>
<g>
</g>
<g>
</g>
<g>
</g>
<g>
</g>
<g>
</g>
<g>
</g>
<g>
</g>
<g>
</g>
<g>
</g>
<g>
</g>
<g>
</g>
<g>
</g>
<g>
</g>
<g>
</g>
<g>
</g>
</svg>
